<?xml version="1.0" encoding="UTF-8" standalone="no"?>
<!-- Created with Inkscape (http://www.inkscape.org/) -->

<svg
   width="982.33392"
   height="1079.2891"
   viewBox="0 0 259.90918 285.5619"
   version="1.1"
   id="svg5"
   inkscape:export-filename="forma.svg"
   inkscape:export-xdpi="96.063232"
   inkscape:export-ydpi="96.063232"
   xmlns:inkscape="http://www.inkscape.org/namespaces/inkscape"
   xmlns:sodipodi="http://sodipodi.sourceforge.net/DTD/sodipodi-0.dtd"
   xmlns="http://www.w3.org/2000/svg"
   xmlns:svg="http://www.w3.org/2000/svg">
  <sodipodi:namedview
     id="namedview7"
     pagecolor="#505050"
     bordercolor="#eeeeee"
     borderopacity="1"
     inkscape:showpageshadow="0"
     inkscape:pageopacity="0"
     inkscape:pagecheckerboard="0"
     inkscape:deskcolor="#505050"
     inkscape:document-units="mm"
     showgrid="false" />
  <defs
     id="defs2" />
  <g
     inkscape:label="Camada 1"
     inkscape:groupmode="layer"
     id="layer1"
     transform="translate(-249.33103,-0.74569094)">
    <path
       id="path2625"
       style="fill:#eec643;fill-opacity:1;stroke:none;stroke-width:1;stroke-dasharray:none;stroke-opacity:1"
       d="m 249.33103,0.74569092 c 0.98346,1.46508568 1.9764,2.92384738 2.98328,4.37285968 1.06709,1.5356421 2.14709,3.0623232 3.24012,4.5795654 1.09303,1.517242 2.19903,3.024753 3.31762,4.523238 1.11859,1.498485 2.24984,2.98754 3.3936,4.466911 1.14376,1.479371 2.29997,2.949134 3.46852,4.409033 1.16854,1.4599 2.34948,2.910052 3.54242,4.350122 1.19294,1.440071 2.39833,2.870293 3.61528,4.290178 1.21695,1.419884 2.44551,2.829341 3.68608,4.228682 1.24057,1.399342 2.49307,2.78823 3.75688,4.166671 1.26381,1.378441 2.53894,2.746442 3.8256,4.103625 1.28666,1.357184 2.5847,2.703978 3.89382,4.039547 1.30912,1.335569 2.62929,2.660321 3.96048,3.973918 1.3312,1.313597 2.67323,2.615987 4.02611,3.907255 1.35289,1.291267 2.71652,2.570977 4.09071,3.839559 1.37419,1.268581 2.75917,2.525808 4.15427,3.771346 1.3951,1.245537 2.80065,2.479446 4.21628,3.701583 1.41563,1.222136 2.84149,2.432407 4.27726,3.630786 1.43577,1.198378 2.88116,2.385209 4.33668,3.559472 1.45553,1.174264 2.92123,2.336302 4.39612,3.486092 1.47489,1.149791 2.95909,2.287234 4.45296,3.412195 1.49387,1.124961 2.99734,2.23749 4.5098,3.337264 1.51246,1.099774 3.03391,2.186553 4.56458,3.260783 1.53067,1.07423 3.07035,2.135974 4.61884,3.184302 1.54848,1.048328 3.10615,2.083167 4.67206,3.105237 1.56592,1.022069 3.14027,2.031234 4.72323,3.026688 1.58296,0.995454 3.17425,1.977593 4.77387,2.946077 1.59962,0.96848 3.20758,1.92327 4.82348,2.86442 1.61589,0.94115 3.23976,1.86828 4.87153,2.78174 1.63178,0.91347 3.27129,1.81313 4.91857,2.69855 1.64727,0.88542 3.30217,1.75677 4.96455,2.61379 2.32241,1.19728 4.65912,2.36727 6.99234,3.54345 2.33322,1.17619 4.66332,2.35845 6.9727,3.58066 1.01998,0.53981 2.03519,1.08758 3.04581,1.64331 1.01062,0.55574 2.01626,1.11941 3.01739,1.69086 1.00113,0.57145 1.99744,1.15092 2.98896,1.73788 0.99152,0.58695 1.97824,1.18161 2.96003,1.78387 0.98179,0.60225 1.95915,1.21199 2.93108,1.82934 0.97194,0.61735 1.93864,1.24259 2.9006,1.87482 1.92392,1.26448 3.828,2.55813 5.71128,3.8809 1.88328,1.32278 3.74561,2.6746 5.58726,4.05402 1.84165,1.37941 3.66264,2.78653 5.46168,4.22093 1.79904,1.4344 3.57653,2.89599 5.33197,4.38371 1.75545,1.48773 3.48882,3.00142 5.19969,4.54081 1.71086,1.53939 3.39899,3.10437 5.06429,4.69377 1.6653,1.5894 3.30756,3.20329 4.92631,4.84105 1.61876,1.63775 3.21401,3.29923 4.78524,4.98367 1.57122,1.68445 3.11835,3.39217 4.64106,5.12165 1.52271,1.72949 3.02108,3.48109 4.4943,5.25395 1.47322,1.77286 2.92118,3.567 4.34392,5.38158 1.42274,1.81458 2.8202,3.64942 4.19148,5.50406 1.37127,1.85464 2.71658,3.72884 4.03541,5.62188 1.31882,1.89304 2.61137,3.80475 3.87676,5.73453 1.2654,1.92978 2.50352,3.87767 3.71451,5.84254 1.21098,1.96487 2.39458,3.94707 3.55017,5.94537 1.15558,1.9983 2.28302,4.01298 3.38222,6.04304 1.0992,2.03007 2.17037,4.07537 3.21221,6.13555 1.04183,2.06017 2.05456,4.13528 3.03805,6.22391 0.98349,2.08863 1.93768,4.19065 2.86184,6.30607 0.92416,2.11543 1.81817,4.24406 2.68201,6.38462 0.86385,2.14057 1.69756,4.29345 2.50011,6.45749 0.80254,2.16404 1.57432,4.33932 2.31458,6.52518 0.74027,2.18587 1.44897,4.38221 2.12597,6.58823 0.677,2.20603 1.32202,4.42158 1.93477,6.64611 0.61275,2.22453 1.19294,4.45796 1.74046,6.69933 0.54752,2.24137 1.06227,4.49083 1.54358,6.74739 0.45965,2.15507 0.88474,4.31744 1.28312,6.48488 h 0.49144 V 0.74569092 Z" />
  </g>
</svg>
