<?xml version="1.0" encoding="UTF-8" standalone="no"?>
<!-- Created with Inkscape (http://www.inkscape.org/) -->

<svg
   width="80.510689mm"
   height="51.052719mm"
   viewBox="0 0 80.510689 51.052719"
   version="1.1"
   id="svg5"
   xml:space="preserve"
   inkscape:export-filename="bitmap.svg"
   inkscape:export-xdpi="96"
   inkscape:export-ydpi="96"
   xmlns:inkscape="http://www.inkscape.org/namespaces/inkscape"
   xmlns:sodipodi="http://sodipodi.sourceforge.net/DTD/sodipodi-0.dtd"
   xmlns="http://www.w3.org/2000/svg"
   xmlns:svg="http://www.w3.org/2000/svg"><sodipodi:namedview
     id="namedview7"
     pagecolor="#ffffff"
     bordercolor="#000000"
     borderopacity="0.25"
     inkscape:showpageshadow="2"
     inkscape:pageopacity="0.0"
     inkscape:pagecheckerboard="0"
     inkscape:deskcolor="#d1d1d1"
     inkscape:document-units="mm"
     showgrid="false" /><defs
     id="defs2" /><g
     inkscape:label="Camada 1"
     inkscape:groupmode="layer"
     id="layer1"
     transform="translate(-60.237421,-124.94444)"><path
       style="fill:#ffffff;stroke-width:0.138968"
       d="m 98.115888,175.20097 c -0.744391,-0.44794 -1.37844,-0.89223 -1.408999,-0.9873 -0.03073,-0.0956 0.227877,-0.31568 0.57868,-0.49244 l 0.63424,-0.31958 0.50184,0.28833 c 0.276013,0.15857 0.753284,0.43989 1.060603,0.62515 l 0.558758,0.33683 3.67147,-2.2045 3.67145,-2.20451 v -4.48864 -4.48864 l -3.61615,-2.17352 c -1.98889,-1.19544 -3.6637,-2.17552 -3.72181,-2.17795 -0.168856,-0.007 -7.252581,4.26065 -7.36338,4.43622 -0.05514,0.0874 -0.100254,2.06942 -0.100254,4.40456 0,2.33514 0.04511,4.31573 0.100254,4.40132 0.194171,0.3014 2.282161,1.47191 2.625642,1.47191 0.191263,0 0.484228,-0.0991 0.651031,-0.22031 0.302597,-0.21982 0.303281,-0.23046 0.303281,-4.72371 0,-5.00751 -0.02522,-4.87485 0.911573,-4.79486 l 0.521244,0.0445 0.03598,4.72773 c 0.03406,4.47481 0.02144,4.7589 -0.235903,5.31023 -0.373797,0.80082 -0.960064,1.13687 -1.983418,1.1369 -0.719304,3e-5 -0.974682,-0.0856 -2.102512,-0.70486 -0.706067,-0.38768 -1.489,-0.91398 -1.739849,-1.16955 l -0.456091,-0.46467 v -5.0044 -5.0044 l 0.375262,-0.40654 c 0.206394,-0.2236 2.074699,-1.41489 4.15179,-2.6473 4.042239,-2.39842 4.26105,-2.48267 5.17603,-1.99285 1.84783,0.98921 7.34437,4.39548 7.59239,4.70509 0.30453,0.38015 0.30636,0.41174 0.30703,5.30535 5.5e-4,4.32451 -0.0265,4.96596 -0.22304,5.27704 -0.23558,0.37287 -0.43487,0.50109 -5.08658,3.27267 -3.560804,2.12159 -3.4395,2.10074 -5.390562,0.92668 z m 2.133392,-5.39709 c -1.085856,-0.38899 -1.75835,-1.15966 -1.826971,-2.09366 -0.04228,-0.57541 0.108274,-0.75229 0.640313,-0.75229 0.512938,0 0.652882,0.11956 0.993918,0.84914 0.31293,0.66946 0.97392,0.89119 2.43445,0.81665 1.43473,-0.0732 1.85621,-0.32495 1.79626,-1.07284 -0.0372,-0.46459 -0.0985,-0.54136 -0.55525,-0.69601 -0.28237,-0.0956 -1.08065,-0.2476 -1.77397,-0.33779 -2.64866,-0.34453 -3.552247,-1.0998 -3.311094,-2.76761 0.116391,-0.80495 0.844235,-1.6004 1.712644,-1.87172 0.76251,-0.23824 2.64493,-0.23511 3.41983,0.006 0.8,0.24858 1.55747,1.02811 1.76064,1.81191 0.14483,0.55873 0.13584,0.64997 -0.0801,0.81376 -0.49137,0.37263 -1.41922,0.0626 -1.41922,-0.47425 0,-0.0776 -0.1555,-0.29259 -0.34556,-0.47777 -0.27111,-0.26415 -0.53506,-0.34919 -1.2253,-0.39478 -1.53359,-0.10127 -2.24999,0.18121 -2.24999,0.88719 0,0.51354 0.28349,0.64622 2.00211,0.93697 2.66194,0.45035 3.42591,0.8617 3.66087,1.97117 0.25778,1.21725 -0.39698,2.33729 -1.65079,2.82381 -0.98929,0.38387 -2.94313,0.39489 -3.98276,0.0224 z m 10.53085,-7.50681 c -0.46642,-0.20612 -0.87171,-0.85104 -0.87171,-1.38712 0,-0.3725 0.11574,-0.61044 0.48141,-0.98969 0.43522,-0.45137 0.53544,-0.49177 1.04427,-0.42099 0.81301,0.1131 1.27172,0.63392 1.27172,1.44391 0,0.48729 -0.0791,0.71248 -0.34848,0.99184 -0.37949,0.39358 -1.12079,0.56374 -1.57721,0.36205 z m 0.90225,-0.3054 c 0.15404,-0.11298 0.16248,-0.1679 0.0341,-0.22191 -0.0938,-0.0395 -0.17058,-0.16201 -0.17058,-0.27228 0,-0.11027 -0.0921,-0.20049 -0.20468,-0.20049 -0.11258,0 -0.20469,0.10084 -0.20469,0.22408 0,0.42588 -0.3413,0.10639 -0.38532,-0.3607 -0.0709,-0.75238 0.0746,-1.13709 0.43007,-1.13709 0.443,0 0.83713,0.33287 0.73165,0.61794 -0.11982,0.32384 0.0465,1.10249 0.22252,1.04164 0.24529,-0.0848 0.38392,-0.74222 0.23955,-1.13603 -0.0743,-0.20266 -0.33179,-0.47397 -0.57222,-0.60291 -0.40249,-0.21587 -0.47345,-0.21649 -0.89529,-0.008 -0.87231,0.43142 -0.94553,1.42312 -0.14256,1.93089 0.50162,0.3172 0.63102,0.33479 0.91743,0.12472 z m -1.37573,-5.06829 c -2.16563,-1.20379 -7.48719,-4.48628 -7.73289,-4.76987 -0.306,-0.35319 -0.30703,-0.37085 -0.30703,-5.29191 0,-4.92416 8.2e-4,-4.93847 0.30703,-5.28146 0.312,-0.34949 7.80378,-4.87691 8.28692,-5.00795 0.15842,-0.043 0.72434,0.18881 1.41663,0.58018 0.63405,0.35845 1.22012,0.65173 1.30239,0.65173 0.10617,0 0.14956,-1.80012 0.14956,-6.2051 0,-6.06218 0.006,-6.21111 0.27787,-6.4659 0.24953,-0.2342 0.32953,-0.24144 0.78464,-0.071 0.68468,0.25644 4.38925,2.40392 4.69631,2.72238 0.23231,0.24093 0.24537,0.88967 0.24537,12.18673 v 11.93226 l -0.37526,0.35647 c -0.52885,0.50238 -7.98857,4.93285 -8.30559,4.93285 -0.14368,0 -0.47936,-0.12124 -0.74595,-0.26943 z m 2.08183,-7.56934 1.27256,-0.76259 0.0382,-1.69668 0.0382,-1.69669 -1.36866,-0.81073 -1.36865,-0.81074 -1.36865,0.81074 -1.36866,0.81073 0.0382,1.69713 0.0382,1.69712 1.22813,0.75037 c 0.67547,0.4127 1.30025,0.75567 1.38839,0.76215 0.0881,0.006 0.73292,-0.33138 1.43282,-0.75081 z m -23.523272,7.14636 c -2.921246,-1.61458 -7.277568,-4.35967 -7.436902,-4.68628 -0.128342,-0.26309 -0.172718,-1.56477 -0.174218,-5.11034 -0.0019,-4.54029 0.01041,-4.7737 0.270142,-5.11616 0.149684,-0.19736 2.058284,-1.42289 4.241333,-2.72342 3.219818,-1.91816 4.039232,-2.35006 4.340229,-2.28762 0.482506,0.10008 7.925449,4.55807 8.237748,4.93404 0.217659,0.26203 0.238803,0.72857 0.238803,5.26884 0,3.76683 -0.04159,5.03801 -0.170573,5.21369 -0.1739,0.23685 -7.316869,4.52176 -8.113745,4.86725 -0.412764,0.17896 -0.495123,0.15827 -1.432817,-0.36 z m 38.851082,-1.93229 c -2.17652,-1.28756 -4.03406,-2.44593 -4.12788,-2.57416 -0.12898,-0.17628 -0.17057,-1.44964 -0.17057,-5.22227 0,-4.97767 6.8e-4,-4.98993 0.30703,-5.33307 0.4675,-0.52367 7.99316,-4.9554 8.41493,-4.9554 0.43161,0 7.8467,4.41525 8.30127,4.94292 0.27458,0.31873 0.30704,0.50448 0.30704,1.75709 0,0.77038 -0.0643,1.54697 -0.14294,1.72577 -0.13784,0.31349 -4.41143,3.01416 -5.039,3.18436 -0.50166,0.13606 -0.68579,-0.19457 -0.68579,-1.23139 0,-1.71012 -0.0218,-1.75085 -1.36362,-2.54721 -0.65629,-0.3895 -1.30288,-0.70819 -1.43687,-0.70819 -0.24259,0 -1.70475,0.7887 -2.41906,1.30487 -0.3699,0.26729 -0.37523,0.29277 -0.37317,1.7829 0.001,0.83146 0.0472,1.58142 0.10234,1.66657 0.0551,0.0852 1.78893,1.15902 3.85287,2.38635 2.06394,1.22734 3.86008,2.32979 3.99142,2.44991 0.13134,0.12011 0.2388,0.32602 0.2388,0.45756 0,0.35848 -0.27575,0.55647 -2.73463,1.96351 -1.41711,0.81091 -2.40735,1.29142 -2.66095,1.29122 -0.27145,-1.4e-4 -1.70172,-0.76806 -4.36122,-2.34134 z m -67.315117,0.1905 c -0.122589,-0.12714 -0.163751,-1.79717 -0.163751,-6.64371 v -6.47389 l 0.307032,-0.35615 c 0.478401,-0.55495 7.873021,-4.896 8.339925,-4.896 0.413747,0 8.044155,4.45542 8.473954,4.94797 0.201385,0.23079 0.223082,0.91544 0.2135,6.73692 -0.0074,4.48425 -0.05684,6.53772 -0.160572,6.66736 -0.08245,0.10303 -0.266461,0.18733 -0.408915,0.18733 -0.397505,0 -4.892053,-2.71336 -5.14631,-3.10683 -0.187914,-0.2908 -0.231415,-0.86481 -0.268131,-3.53807 -0.03363,-2.44877 -0.08718,-3.24034 -0.230215,-3.40326 -0.102514,-0.11676 -0.710349,-0.49888 -1.350744,-0.84915 l -1.164355,-0.63686 -0.897371,0.49534 c -0.493554,0.27243 -1.109478,0.6751 -1.36872,0.89482 l -0.47135,0.39949 v 3.21805 c 0,2.99988 -0.01812,3.23823 -0.267298,3.51561 -0.328119,0.36527 -4.780073,3.01086 -5.066619,3.01086 -0.11347,0 -0.279998,-0.0764 -0.37006,-0.16983 z m 70.877997,-6.47734 c -0.36705,-0.22323 -0.71919,-0.49069 -0.78255,-0.59435 -0.0634,-0.10365 -0.11614,-0.5857 -0.11729,-1.07121 -0.002,-0.87862 5.4e-4,-0.88444 0.55065,-1.24463 1.06027,-0.69416 1.16728,-0.71507 1.80434,-0.35248 1.03389,0.58846 1.06984,0.65025 1.02572,1.76304 l -0.0396,0.99813 -0.74449,0.46081 c -0.40947,0.25345 -0.80861,0.45761 -0.88698,0.45369 -0.0784,-0.004 -0.4428,-0.18977 -0.80984,-0.413 z"
       id="path185" /></g></svg>
