<?xml version="1.0" encoding="UTF-8" standalone="no"?>
<!-- Created with Inkscape (http://www.inkscape.org/) -->

<svg
   width="261.75635"
   height="251.10364"
   viewBox="0 0 69.256366 66.437837"
   version="1.1"
   id="svg5"
   xml:space="preserve"
   sodipodi:docname="logo.svg"
   inkscape:export-filename="logo.svg"
   inkscape:export-xdpi="2"
   inkscape:export-ydpi="2"
   xmlns:inkscape="http://www.inkscape.org/namespaces/inkscape"
   xmlns:sodipodi="http://sodipodi.sourceforge.net/DTD/sodipodi-0.dtd"
   xmlns="http://www.w3.org/2000/svg"
   xmlns:svg="http://www.w3.org/2000/svg"><sodipodi:namedview
     id="namedview7"
     pagecolor="#505050"
     bordercolor="#eeeeee"
     borderopacity="1"
     inkscape:showpageshadow="0"
     inkscape:pageopacity="0"
     inkscape:pagecheckerboard="0"
     inkscape:deskcolor="#505050"
     inkscape:document-units="mm"
     showgrid="false"
     inkscape:zoom="0.50185185"
     inkscape:cx="960.4428"
     inkscape:cy="540"
     inkscape:window-width="1360"
     inkscape:window-height="745"
     inkscape:window-x="-8"
     inkscape:window-y="-8"
     inkscape:window-maximized="1"
     inkscape:current-layer="layer1"
     showguides="false" /><defs
     id="defs2"><linearGradient
       id="linearGradient914"
       inkscape:swatch="solid"><stop
         style="stop-color:#ffffff;stop-opacity:1;"
         offset="0"
         id="stop912" /></linearGradient></defs><g
     inkscape:label="Camada 1"
     inkscape:groupmode="layer"
     id="layer1"
     style="display:inline"
     transform="translate(-230.98565,-122.84091)"><path
       style="display:inline;opacity:1;fill:#eec643;fill-opacity:1;stroke:none;stroke-width:0.281458;stroke-dasharray:none;stroke-opacity:1"
       d="M 240.7391,173.05947 V 156.8406 l 11.14105,0.009 c 8.94651,0.007 11.17472,-0.025 11.31195,-0.16197 0.094,-0.0938 1.66411,-1.35104 3.48913,-2.79391 1.82504,-1.44287 3.31824,-2.69974 3.31824,-2.79304 0,-0.0933 -0.058,-0.2055 -0.1289,-0.24932 -0.0709,-0.0438 -3.68893,-0.0757 -8.04003,-0.0708 l -7.91109,0.009 v -4.28654 -4.28653 h 2.57017 2.57017 v 2.30586 2.30587 l 12.02347,0.0336 12.02349,0.0336 -9.15356,6.95263 -9.15357,6.95264 h -9.7237 -9.7237 v 9.47575 c 0,8.59399 0.0198,9.48334 0.21247,9.55729 0.23335,0.0895 0.37122,-0.007 5.22443,-3.64913 l 3.13033,-2.34934 v -4.07892 -4.07892 h 2.57017 2.57017 l -0.006,4.90968 -0.006,4.90968 -2.13611,1.59639 c -1.17487,0.87801 -5.29446,3.97895 -9.15465,6.89099 l -7.01854,5.2946 z"
       id="path3149" /><path
       style="display:inline;opacity:1;fill:#eec643;fill-opacity:1;stroke:none;stroke-width:1.06378;stroke-dasharray:none;stroke-opacity:1"
       d="m 912.869,536.51292 v -32.87823 h 74.46624 74.46626 l 12.0882,-10.02941 c 15.0884,-12.51867 13.7191,-11.21918 12.7953,-12.14304 -0.6657,-0.66563 -12.9521,-0.75101 -107.21011,-0.74497 l -106.45828,0.007 v -8.22182 -8.22182 H 1004.131 c 72.7239,0 130.9036,0.18987 130.6411,0.42635 -0.2602,0.23449 -15.8753,12.33966 -34.7001,26.90037 l -34.2268,26.47402 h -66.7741 -66.77405 v 25.33281 25.33281 l -3.81133,0.32217 c -2.09622,0.1772 -6.46753,0.32217 -9.71402,0.32217 h -5.9027 z"
       id="path3151"
       transform="scale(0.26458333)" /></g></svg>
